<?xml version="1.0" standalone="no"?>
<!DOCTYPE svg PUBLIC "-//W3C//DTD SVG 20010904//EN"
 "http://www.w3.org/TR/2001/REC-SVG-20010904/DTD/svg10.dtd">
<svg version="1.0" xmlns="http://www.w3.org/2000/svg"
 width="700.000000pt" height="700.000000pt" viewBox="0 0 700.000000 700.000000"
 preserveAspectRatio="xMidYMid meet">
<metadata>
Created by potrace 1.11, written by Peter Selinger 2001-2013
</metadata>
<g transform="translate(0.000000,700.000000) scale(0.100000,-0.100000)"
fill="#000000" stroke="none">
<path d="M3285 6994 c-305 -30 -421 -48 -631 -99 -476 -117 -944 -348 -1339
-661 -141 -113 -436 -408 -549 -549 -409 -516 -656 -1108 -742 -1780 -25 -196
-25 -614 0 -810 86 -672 333 -1264 742 -1780 113 -141 408 -436 549 -549 516
-409 1108 -656 1780 -742 196 -25 614 -25 810 0 672 86 1264 333 1780 742 141
113 436 408 549 549 409 516 656 1108 742 1780 25 196 25 614 0 810 -86 672
-333 1264 -742 1780 -113 141 -408 436 -549 549 -515 408 -1109 657 -1775 741
-117 15 -536 28 -625 19z m199 -1490 c14 -13 16 -60 16 -364 0 -304 -2 -351
-16 -364 -14 -14 -85 -16 -630 -16 l-614 0 0 -1260 0 -1260 1260 0 1260 0 0
614 c0 545 2 616 16 630 13 14 60 16 364 16 304 0 351 -2 364 -16 14 -14 16
-118 16 -998 0 -750 -3 -985 -12 -994 -17 -17 -3999 -17 -4016 0 -17 17 -17
3999 0 4016 9 9 244 12 994 12 880 0 984 -2 998 -16z m1768 -251 c190 -190
248 -254 248 -273 0 -18 -63 -88 -272 -297 -150 -150 -277 -273 -283 -273 -5
0 -131 120 -278 268 l-267 267 278 278 c212 212 284 277 302 277 19 0 84 -59
272 -247z m-737 -743 l270 -270 -630 -630 -630 -630 -362 -121 c-260 -87 -369
-120 -387 -115 -51 13 -46 36 83 419 l121 362 628 628 c345 345 629 627 632
627 3 0 127 -122 275 -270z"/>
</g>
</svg>
